# xmcd
#
# Track frame offsets:
#      150
#      12507
#      22832
#      34760
#      43750
#      53777
#      64755
#      75727
#      83900
#      95247
#      107585
#      117487
#      129587
#      138480
# 
# Disc length: 2006 seconds
#
# Revision: 2
# Processed by: cddbd v1.4PL0 Copyright (c) Steve Scherf et al.
#
# Submitted via: FreeRIP 1.20
#
DISCID=bc07d40e
DTITLE=Johnny Cash - I walk the line
DYEAR=1900
DGENRE=country
TTITLE0=I walk the line
TTITLE1=There you go
TTITLE2=Home of the blues
TTITLE3=Life goes on
TTITLE4=Goodbye little darling
TTITLE5=The ways of a woman in love
TTITLE6=I love you because
TTITLE7=Guess things happen that way
TTITLE8=Big river
TTITLE9=Next in line
TTITLE10=Hey porter
TTITLE11=Give my love to rose
TTITLE12=Katy Too
TTITLE13=You're the nearest thing to heaven
EXTD=
EXTT0=
EXTT1=
EXTT2=
EXTT3=
EXTT4=
EXTT5=
EXTT6=
EXTT7=
EXTT8=
EXTT9=
EXTT10=
EXTT11=
EXTT12=
EXTT13=
PLAYORDER=
